<?xml version="1.0" encoding="UTF-8" standalone="no"?>
<!-- Created with Inkscape (http://www.inkscape.org/) -->

<svg
   xmlns:dc="http://purl.org/dc/elements/1.1/"
   xmlns:cc="http://creativecommons.org/ns#"
   xmlns:rdf="http://www.w3.org/1999/02/22-rdf-syntax-ns#"
   xmlns:svg="http://www.w3.org/2000/svg"
   xmlns="http://www.w3.org/2000/svg"
   xmlns:sodipodi="http://sodipodi.sourceforge.net/DTD/sodipodi-0.dtd"
   xmlns:inkscape="http://www.inkscape.org/namespaces/inkscape"
   width="256"
   height="256"
   id="svg2"
   version="1.1"
   inkscape:version="0.48.2 r9819"
   sodipodi:docname="disabled.svg"
   inkscape:export-filename="C:\dev\autosave\AutoSave Icons\main 64.png"
   inkscape:export-xdpi="22.5"
   inkscape:export-ydpi="22.5">
  <defs
     id="defs4">
    <linearGradient
       id="linearGradient4021">
      <stop
         style="stop-color:#ffffff;stop-opacity:1;"
         offset="0"
         id="stop4023" />
      <stop
         style="stop-color:#c6c6c6;stop-opacity:1;"
         offset="1"
         id="stop4025" />
    </linearGradient>
    <filter
       id="filter4047"
       inkscape:label="Simple blur"
       inkscape:menu="ABCs"
       inkscape:menu-tooltip="Simple Gaussian blur, same as the blur slider in Fill and Stroke dialog"
       color-interpolation-filters="sRGB">
      <feGaussianBlur
         id="feGaussianBlur4049"
         stdDeviation="3" />
    </filter>
    <filter
       id="filter4126"
       inkscape:label="Simple blur"
       inkscape:menu="ABCs"
       inkscape:menu-tooltip="Simple Gaussian blur, same as the blur slider in Fill and Stroke dialog"
       color-interpolation-filters="sRGB">
      <feGaussianBlur
         id="feGaussianBlur4128"
         stdDeviation="3" />
    </filter>
    <filter
       id="filter4236"
       inkscape:label="Simple blur"
       inkscape:menu="ABCs"
       inkscape:menu-tooltip="Simple Gaussian blur, same as the blur slider in Fill and Stroke dialog"
       color-interpolation-filters="sRGB">
      <feGaussianBlur
         id="feGaussianBlur4238"
         stdDeviation="3" />
    </filter>
  </defs>
  <sodipodi:namedview
     id="base"
     pagecolor="#ffffff"
     bordercolor="#666666"
     borderopacity="1.0"
     inkscape:pageopacity="0.0"
     inkscape:pageshadow="2"
     inkscape:zoom="2"
     inkscape:cx="104.30196"
     inkscape:cy="94.937521"
     inkscape:document-units="px"
     inkscape:current-layer="layer1"
     showgrid="false"
     inkscape:snap-page="false"
     inkscape:object-paths="false"
     inkscape:window-width="1280"
     inkscape:window-height="1002"
     inkscape:window-x="1358"
     inkscape:window-y="-8"
     inkscape:window-maximized="1" />
  <metadata
     id="metadata7">
    <rdf:RDF>
      <cc:Work
         rdf:about="">
        <dc:format>image/svg+xml</dc:format>
        <dc:type
           rdf:resource="http://purl.org/dc/dcmitype/StillImage" />
        <dc:title />
      </cc:Work>
    </rdf:RDF>
  </metadata>
  <g
     inkscape:label="Ebene 1"
     inkscape:groupmode="layer"
     id="layer1"
     transform="translate(0,-796.3622)">
    <path
       sodipodi:type="arc"
       style="color:#000000;fill:#eaeaea;fill-opacity:1;fill-rule:nonzero;stroke:none;stroke-width:24;marker:none;visibility:visible;display:inline;overflow:visible;enable-background:accumulate"
       id="path3978"
       sodipodi:cx="127.25"
       sodipodi:cy="119.25"
       sodipodi:rx="117.25"
       sodipodi:ry="104.25"
       d="M 244.5,119.25 C 244.5,176.82569 192.00539,223.5 127.25,223.5 62.494613,223.5 10,176.82569 10,119.25 10,61.674315 62.494613,15 127.25,15 192.00539,15 244.5,61.674315 244.5,119.25 z"
       transform="matrix(0.91905984,0,0,1.0860598,12.28865,796.589)" />
    <path
       inkscape:connector-curvature="0"
       style="font-size:medium;font-style:normal;font-variant:normal;font-weight:normal;font-stretch:normal;text-indent:0;text-align:start;text-decoration:none;line-height:normal;letter-spacing:normal;word-spacing:normal;text-transform:none;direction:ltr;block-progression:tb;writing-mode:lr-tb;text-anchor:start;baseline-shift:baseline;opacity:0.29999999999999999;color:#000000;fill:#000000;fill-opacity:1;stroke:none;stroke-width:24;marker:none;visibility:visible;display:inline;overflow:visible;enable-background:accumulate;font-family:Sans;-inkscape-font-specification:Sans"
       d="M 117.78125,843.59657 58.6875,989.1278 l 34.875,0 10.90625,-27.3437 55.03125,0.25 10.8125,27.0937 3.96875,0 29.03125,0 -59,-145.53123 -26.53125,0 z m 14.15625,49.4375 17.9375,44.90625 -35.84375,-0.0937 17.90625,-44.8125 z"
       id="path3964-9"
       transform="matrix(1.0000906,0,0,0.9997504,-0.02270048,0.2205849)" />
    <path
       style="font-size:medium;font-style:normal;font-variant:normal;font-weight:normal;font-stretch:normal;text-indent:0;text-align:start;text-decoration:none;line-height:normal;letter-spacing:normal;word-spacing:normal;text-transform:none;direction:ltr;block-progression:tb;writing-mode:lr-tb;text-anchor:start;baseline-shift:baseline;color:#000000;fill:#c45050;fill-opacity:1;fill-rule:nonzero;stroke:none;stroke-width:31.61938667000000100;marker:none;visibility:visible;display:inline;overflow:visible;enable-background:accumulate;font-family:Sans;-inkscape-font-specification:Sans"
       d="M 127.97471,796.3622 C 57.505823,796.3622 0,853.81353 0,924.36222 c 0,70.54869 57.505823,127.99998 127.97471,127.99998 70.46889,0 128.00439,-57.45129 128.00439,-127.99998 0,-70.54869 -57.5355,-128.00002 -128.00439,-128.00002 z m 0,30.12291 c 54.30863,0 97.96952,43.69074 97.96952,97.87711 0,54.18637 -43.66089,97.84728 -97.96952,97.84728 -54.308629,0 -97.939828,-43.66091 -97.939828,-97.84728 0,-54.18637 43.631199,-97.87711 97.939828,-97.87711 z"
       id="path2985"
       inkscape:connector-curvature="0" />
    <path
       style="font-size:medium;font-style:normal;font-variant:normal;font-weight:normal;font-stretch:normal;text-indent:0;text-align:start;text-decoration:none;line-height:normal;letter-spacing:normal;word-spacing:normal;text-transform:none;direction:ltr;block-progression:tb;writing-mode:lr-tb;text-anchor:start;baseline-shift:baseline;color:#000000;fill:#678d95;fill-opacity:1;stroke:none;stroke-width:24;marker:none;visibility:visible;display:inline;overflow:visible;enable-background:accumulate;font-family:Sans;-inkscape-font-specification:Sans"
       d="m 114.7377,840.02936 -59.099106,145.49492 34.87816,0 10.907246,-27.33692 55.03622,0.24994 10.81349,27.08698 3.96911,0 29.03388,0 -59.00535,-145.49492 -26.53365,0 z m 14.15753,49.42516 17.93913,44.89505 -35.847,-0.0937 17.90787,-44.80132 z"
       id="path3964"
       inkscape:connector-curvature="0" />
    <path
       style="fill:#c45050;stroke:#c45050;stroke-width:32;stroke-linecap:butt;stroke-linejoin:miter;stroke-opacity:1;fill-opacity:1"
       d="m 56,43.5 149,167"
       id="path3767"
       inkscape:connector-curvature="0"
       transform="translate(0,796.3622)" />
    <path
       style="color:#000000;fill:#133434;fill-opacity:0.22779924;fill-rule:nonzero;stroke:none;stroke-width:1.12328768;marker:none;visibility:visible;display:inline;overflow:visible;enable-background:accumulate"
       d="m 251.0933,889.26707 c 3.189,11.15497 4.9067,22.92461 4.9067,35.08499 0,70.5487 -57.51146,127.99934 -127.98035,127.99934 -37.748108,0 -71.75721,-16.4927 -95.227377,-42.6457 19.861201,10.0282 41.81752,11.5597 70.725157,11.5597 3.04019,0 6.06856,-0.1067 9.06332,-0.2812 5.03576,0.7908 10.17281,1.2184 15.4389,1.2184 34.93806,0 65.4627,-18.0776 82.78875,-45.39489 22.80543,-23.16433 37.64166,-53.71106 40.2849,-87.54064 z"
       id="path3993"
       inkscape:connector-curvature="0" />
  </g>
</svg>
